<svg xmlns="http://www.w3.org/2000/svg" xml:space="preserve" width="1400mm" height="350mm" style="shape-rendering:geometricPrecision;text-rendering:geometricPrecision;image-rendering:optimizeQuality;fill-rule:evenodd;clip-rule:evenodd" viewBox="0 0 140000 35000"><defs><style>.str0,.str1,.str2{stroke:#86776f;stroke-width:100;stroke-miterlimit:22.9256}.str0,.str1{stroke-width:200}.str0{stroke-width:600}.fil0{fill:none}.fil1{fill:#009846}</style></defs><g id="Слой_x0020_1"><path d="M135652.53 3647.04c-4061.72 5691.99-10624.52 12413.9-12893.57 31350.17" class="fil0 str0"/><g id="_2013972440256"><path d="M126959.17 27329.22c-954.5-88.19-1505.07 216.39-1967.66 102.57-462.59-113.82-895.84-367.09-807.86-785.5-87.99 418.4-579.9 444.04-1042.49 330.22-462.59-113.82-837.19-646.04-1733.03-1013.14 954.5 88.19 1505.08-216.4 1967.66-102.58 462.59 113.82 895.84 367.1 807.86 785.49 87.99-418.39 579.91-444.03 1042.49-330.21 462.59 113.82 837.19 646.04 1733.03 1013.15z" class="fil1 str1"/><path d="M124125.99 26745.72s-492.28-619.24-1124.37-547.39c-632.1 71.84-1485.39-219.17-1485.39-219.17" class="fil0 str2"/><path d="M124123.61 26743.79s771.64-311.73 1277.54 36.97c505.9 348.71 1405.84 484.25 1405.84 484.25" class="fil0 str2"/></g><g id="_2014278369920"><path d="M127706.97 24371.86c-942.71-173.64-1518.44 80.21-1968.92-74.73-450.48-154.95-859.21-446.14-733.97-854.95-125.25 408.8-617.48 390.11-1067.96 235.17-450.48-154.95-775.72-718.69-1634.94-1164.83 942.71 173.63 1518.44-80.22 1968.93 74.72 450.48 154.95 859.2 446.14 733.97 854.93 125.24-408.78 617.47-390.1 1067.95-235.15 450.49 154.94 775.72 718.69 1634.94 1164.84z" class="fil1 str1"/><path d="M124937.71 23536.03s-434.62-660.99-1070.61-646.26c-635.99 14.73-1459.67-351.81-1459.67-351.81" class="fil0 str2"/><path d="M124935.51 23533.89s796.55-241.1 1269.05 151.67 1356.61 608.67 1356.61 608.67" class="fil0 str2"/></g><g id="_2014282644240"><path d="M128775.12 21058.89c-930.61-229.79-1520.51-10.86-1960.91-192.5-440.39-181.64-830.95-496.79-681.46-897.36-149.5 400.57-639.73 352.44-1080.12 170.8-440.4-181.64-731.29-763.85-1562.26-1260.64 930.63 229.77 1520.52 10.84 1960.92 192.48 440.39 181.65 830.95 496.79 681.46 897.35 149.5-400.55 639.73-352.42 1080.12-170.78 440.4 181.64 731.29 763.84 1562.25 1260.65z" class="fil1 str1"/><path d="M126060.88 20058.73s-394.26-685.82-1029.99-709.2c-635.73-23.38-1435.98-438.58-1435.98-438.58" class="fil0 str2"/><path d="M126058.82 20056.47s809.55-192.97 1257.68 227.39c448.14 420.36 1317.74 688.8 1317.74 688.8" class="fil0 str2"/></g><g id="_2014282644912"><path d="M130280.86 17262.48c-934.38-213.95-1520.48 14.96-1963.9-159.17-443.41-174.14-839.26-482.61-696.6-885.66-142.67 403.04-633.65 363.25-1077.06 189.11-443.42-174.14-744.16-751.32-1583.44-1233.93 934.39 213.94 1520.49-14.97 1963.9 159.16 443.42 174.14 839.27 482.61 696.61 885.65 142.67-403.04 633.64-363.24 1077.06-189.1 443.42 174.13 744.16 751.32 1583.43 1233.94z" class="fil1 str1"/><path d="M127550.03 16308.56s-405.85-679.03-1041.89-691.62c-636.03-12.58-1443.22-414.13-1443.22-414.13" class="fil0 str2"/><path d="M127547.93 16306.33s806.15-206.69 1261.36 206c455.21 412.69 1329.24 666.33 1329.24 666.33" class="fil0 str2"/></g><g id="_2014283984416"><path d="M131664.06 14607.36c-892.5-342.78-1510.37-199.93-1922.3-434.15-411.93-234.22-755.21-594.12-549.28-971.19-205.94 377.07-686.51 268.53-1098.44 34.3-411.93-234.22-617.92-845.51-1373.14-1439.63 892.5 342.76 1510.38 199.91 1922.31 434.14 411.93 234.22 755.21 594.11 549.28 971.18 205.94-377.06 686.51-268.52 1098.44-34.3 411.93 234.22 617.92 845.51 1373.13 1439.65z" class="fil1 str1"/><path d="M129108.19 13281.68s-293.95-726.5-922.74-828.7c-628.8-102.21-1365.15-611.91-1365.15-611.91" class="fil0 str2"/><path d="M129106.46 13279.19s832.58-89.89 1218.06 381.1c385.49 470.99 1211.78 844.36 1211.78 844.36" class="fil0 str2"/></g><g id="_2014283983120"><path d="M132630.14 11385.51c-645.02-305.33-1116.66-233.86-1409.35-431.34-292.7-197.48-525.74-484.61-346.81-753.57-178.94 268.96-531.27 161.12-823.97-36.36-292.69-197.49-406.45-663.93-932.19-1148.54 645.03 305.32 1116.66 233.85 1409.36 431.34 292.69 197.48 525.74 484.6 346.81 753.56 178.93-268.95 531.27-161.11 823.96 36.37 292.7 197.48 406.45 663.92 932.19 1148.54z" class="fil1 str1"/><path d="M130805.67 10255.13s-171.95-557.12-635.59-668.6c-463.63-111.47-980.83-532.21-980.83-532.21" class="fil0 str2"/><path d="M130804.54 10253.18s628.75-19.97 886.04 352.19c257.29 372.16 850.77 696.53 850.77 696.53" class="fil0 str2"/></g><g id="_2014283984032"><path d="M133406.16 9004.72c-378.29-257.62-705.71-244.57-867.2-401.75-161.5-157.18-267.69-371.1-101.77-541.33-165.92 170.23-382.72 69.79-544.22-87.39-161.49-157.18-157.07-484.59-424.76-855.69 378.3 257.61 705.71 244.56 867.21 401.74s267.69 371.1 101.77 541.33c165.92-170.23 382.72-69.79 544.21 87.39 161.5 157.18 157.07 484.59 424.76 855.7z" class="fil1 str1"/><path d="M132382.15 8093.72s-18.82-393.81-309.35-505.18c-290.53-111.37-563.52-438.17-563.52-438.17" class="fil0 str2"/><path d="M132381.73 8092.3s423.5 34.06 531.23 307.94c107.72 273.87 448.29 540.6 448.29 540.6" class="fil0 str2"/></g><path d="M136001.81 3145.21c-144.82 317.02-99.15 560.2-195.18 701.77-236.87 349.25-764.31 298.86-377.83-270.95 96.02-141.58 333.73-181.54 573.01-430.82z" class="fil1 str1"/><g id="_2014279890736"><path d="M136089.35 4461.09c-225.4-132.06-426.33-75.22-521.39-165.81-95.05-90.6-154.82-230.33-48.94-377.77-105.88 147.44-236.22 105.98-331.28 15.39-95.05-90.6-84.23-328.63-239.05-558.96 225.4 132.05 426.34 75.22 521.39 165.81 95.05 90.6 154.82 230.33 48.94 377.76 105.88-147.43 236.22-105.97 331.28-15.38 95.05 90.6 84.23 328.62 239.05 558.96z" class="fil1 str1"/><path d="M135484.5 3948.74s-1.77-282.8-177.02-321.52c-175.25-38.71-334.42-236.15-334.42-236.15" class="fil0 str2"/><path d="M135484.28 3947.77s258.64-36.58 317.86 146.41c59.21 182.98 261.28 327.09 261.28 327.09" class="fil0 str2"/></g><g id="_2014280813344"><path d="M48495.37 17212c14813.03 1873.85-5733.09-20886.97-5977.84 17867.75" class="fil0 str0"/><path d="M45735.36 27593.72c-950.59-67.32-1498.91 165.17-1959.6 78.29-460.69-86.88-892.17-280.2-804.55-599.57-87.63 319.37-577.53 338.93-1038.22 252.06-460.69-86.88-833.75-493.12-1725.93-773.32 950.59 67.31 1498.91-165.18 1959.61-78.3 460.69 86.88 892.16 280.2 804.54 599.55 87.63-319.35 577.53-338.92 1038.22-252.04 460.7 86.88 833.76 493.12 1725.93 773.33z" class="fil1 str1"/><path d="M42913.79 27148.34s-490.27-472.66-1119.77-417.82c-629.5 54.83-1479.3-167.29-1479.3-167.29" class="fil0 str2"/><path d="M42911.42 27146.87s768.48-237.95 1272.3 28.21c503.83 266.17 1400.08 369.62 1400.08 369.62" class="fil0 str2"/><path d="M45923.59 24841.22c-888.41-62.91-1400.87 154.37-1831.42 73.17-430.56-81.19-833.81-261.87-751.93-560.34-81.89 298.47-539.75 316.76-970.31 235.56-430.55-81.19-779.21-460.86-1613.03-722.73 888.41 62.9 1400.86-154.38 1831.42-73.18 430.56 81.19 833.81 261.87 751.93 560.34 81.89-298.47 539.75-316.76 970.3-235.56 430.56 81.19 779.22 460.86 1613.04 722.74z" class="fil1 str1"/><path d="M43286.58 24424.98s-458.2-441.75-1046.53-390.5c-588.32 51.25-1382.53-156.34-1382.53-156.34" class="fil0 str2"/><path d="M43284.36 24423.6s718.21-222.38 1189.08 26.37c470.87 248.76 1308.5 345.45 1308.5 345.45" class="fil0 str2"/><path d="M47257.82 21794.39c-1139.06-80.66-1796.1 197.92-2348.13 93.81-552.03-104.1-1069.06-335.75-964.06-718.43-105.01 382.68-692.04 406.13-1244.07 302.02-552.03-104.1-999.06-590.88-2068.13-926.64 1139.06 80.65 1796.1-197.93 2348.13-93.82 552.03 104.1 1069.06 335.75 964.07 718.43 105-382.68 692.03-406.13 1244.06-302.02 552.03 104.1 999.06 590.89 2068.13 926.65z" class="fil1 str1"/><path d="M43876.81 21260.71s-587.46-566.38-1341.78-500.67c-754.31 65.71-1772.59-200.45-1772.59-200.45" class="fil0 str2"/><path d="M43873.97 21258.95s920.85-285.13 1524.57 33.81c603.71 318.93 1677.67 442.9 1677.67 442.9" class="fil0 str2"/><path d="M48101.79 19017.26c-1139.06-80.66-1796.1 197.92-2348.13 93.82-552.04-104.11-1069.06-335.76-964.07-718.44-105 382.68-692.03 406.13-1244.06 302.02-552.04-104.1-999.07-590.88-2068.13-926.64 1139.06 80.65 1796.1-197.93 2348.13-93.82 552.03 104.1 1069.05 335.75 964.07 718.43 105-382.68 692.03-406.12 1244.06-302.02 552.03 104.1 999.06 590.89 2068.13 926.65z" class="fil1 str1"/><path d="M44720.78 18483.58s-587.47-566.37-1341.78-500.66c-754.31 65.7-1772.6-200.46-1772.6-200.46" class="fil0 str2"/><path d="M44717.94 18481.82s920.85-285.13 1524.56 33.81c603.72 318.93 1677.68 442.9 1677.68 442.9" class="fil0 str2"/><path d="M49247.45 16377.71c-1139.06-80.66-1796.1 197.92-2348.13 93.81-552.03-104.1-1069.05-335.75-964.06-718.44-105.01 382.69-692.04 406.14-1244.07 302.03-552.03-104.1-999.06-590.89-2068.13-926.64 1139.06 80.65 1796.1-197.93 2348.13-93.82 552.04 104.1 1069.06 335.75 964.07 718.42 105-382.67 692.03-406.12 1244.06-302.01 552.04 104.1 999.07 590.88 2068.13 926.65z" class="fil1 str1"/><path d="M45866.45 15844.03s-587.47-566.38-1341.78-500.67c-754.32 65.71-1772.6-200.45-1772.6-200.45" class="fil0 str2"/><path d="M45863.61 15842.26s920.84-285.12 1524.56 33.82c603.71 318.93 1677.67 442.9 1677.67 442.9" class="fil0 str2"/><path d="M50294.57 14887.5c-1043.97-324.61-1794.82-203.35-2271.04-422.36-476.22-219-860.89-551.41-586.28-891.68-274.62 340.26-842.38 234.67-1318.6 15.66-476.22-219-677.82-778.27-1538.72-1329.69 1043.98 324.6 1794.83 203.34 2271.05 422.35 476.22 219 860.89 551.42 586.28 891.67 274.62-340.25 842.38-234.66 1318.6-15.65 476.22 219.01 677.81 778.27 1538.71 1329.7z" class="fil1 str1"/><path d="M47330.37 13644.77s-298.46-665.37-1044.27-767.3c-745.82-101.92-1590.36-576.25-1590.36-576.25" class="fil0 str2"/><path d="M47328.48 13642.48s1004.18-70.01 1431.2 364.11c427.03 434.11 1389.42 785.63 1389.42 785.63" class="fil0 str2"/><path d="M51020.5 13951.6c-546.09-455.91-1108.53-545.5-1323.71-801.13-215.18-255.62-314.6-566.57 32.65-732.61-347.26 166.03-678.18-34.25-893.36-289.87-215.18-255.63-83.09-677.28-397.7-1243.86 546.1 455.9 1108.53 545.49 1323.71 801.12 215.18 255.62 314.61 566.57-32.64 732.61 347.25-166.03 678.17 34.25 893.35 289.87 215.18 255.63 83.1 677.28 397.7 1243.87z" class="fil1 str1"/><path d="M49623.53 12441.42s117.76-515.01-334.55-753.39c-452.3-238.38-792.79-749.44-792.79-749.44" class="fil0 str2"/><path d="M49623.35 12439.45s708.12 181.73 787.35 570.66c79.23 388.93 557.64 844.34 557.64 844.34" class="fil0 str2"/><path d="M51340.9 14160.79c471.12-363.07 507.77-690.32 783.1-842.72 275.34-152.4 630.23-246.52 868.92-71.68-238.69-174.84-42.91-385.52 232.43-537.92 275.34-152.4 789.36-129.95 1419.59-376.48-471.12 363.08-507.77 690.33-783.1 842.73-275.34 152.4-630.23 246.52-868.91 71.68 238.68 174.84 42.9 385.52-232.44 537.92-275.33 152.4-789.36 129.95-1419.59 376.47z" class="fil1 str1"/><path d="M52952.09 13189.74s622.47 2.92 848.31-280.69c225.85-283.61 787.35-537.86 787.35-537.86" class="fil0 str2"/><path d="M52954.4 13189.4s-127.52 420.48-576.95 512.82c-449.42 92.35-928.27 417.31-928.27 417.31" class="fil0 str2"/><path d="M51912.46 14532.57c641.88-24.19 970.82-218.42 1290.16-194.1 319.34 24.33 635.47 121.5 625.87 340.06 9.6-218.56 332.14-267.08 651.48-242.76 319.34 24.33 629.07 267.21 1264.55 388.7-641.88 24.2-970.83 218.44-1290.16 194.11-319.34-24.32-635.47-121.49-625.87-340.05-9.61 218.56-332.15 267.08-651.49 242.75-319.34-24.32-629.07-267.2-1264.54-388.71z" class="fil1 str1"/><path d="M53855.09 14623.93s397.72 278.52 807.65 196.44c409.93-82.08 1008.41 3.9 1008.41 3.9" class="fil0 str2"/><path d="M53856.89 14624.74s-474.4 213.82-849.7 73.5c-375.29-140.33-986.57-144.09-986.57-144.09" class="fil0 str2"/><path d="M52044.94 15408.22c481.91 231.79 877.11 219.65 1087.22 361.15 210.12 141.5 358.53 334.21 173.45 487.85 185.09-153.64 456.89-63.35 667 78.15 210.12 141.5 235.14 436.64 593.67 770.85-481.92-231.79-877.12-219.64-1087.23-361.14s-358.53-334.21-173.45-487.85c-185.08 153.64-456.89 63.35-667-78.15s-235.13-436.64-593.66-770.86z" class="fil1 str1"/><path d="M53369.27 16228.24s59.33 354.97 421.41 455.02c362.09 100.06 722.93 394.33 722.93 394.33" class="fil0 str2"/><path d="M53369.91 16229.52s-515.91-30.22-671.75-276.97c-155.83-246.76-592.93-486.79-592.93-486.79" class="fil0 str2"/><path d="M51033.48 16040.75c343.16 329.02 721.81 408.06 851.98 589.66 130.17 181.59 177.52 397.37-70.96 499.93 248.48-102.56 461.47 44.86 591.65 226.46 130.17 181.59 11.86 465.75 189.38 863.12-343.16-329.01-721.81-408.05-851.98-589.65-130.17-181.6-177.52-397.37 70.95-499.93-248.47 102.55-461.46-44.86-591.64-226.46-130.17-181.6-11.86-465.75-189.38-863.13z" class="fil1 str1"/><path d="M51888.49 17117.58s-114.71 348.44 178.76 525.74c293.46 177.3 492.36 537.53 492.36 537.53" class="fil0 str2"/><path d="M51888.48 17118.93s-472.15-146.65-500.51-415.11c-28.36-268.46-325.27-594.99-325.27-594.99" class="fil0 str2"/><path d="M50114.8 16387.39c87.57 308.72 317.5 449.1 324.07 606.26 6.56 157.16-61.32 319.91-284.67 336.69 223.35-16.78 304.37 134.78 310.94 291.94 6.56 157.16-210.23 331.1-271.54 651.01-87.58-308.73-317.51-449.1-324.07-606.26-6.57-157.16 61.31-319.91 284.66-336.69-223.35 16.78-304.37-134.79-310.93-291.94-6.57-157.16 210.22-331.1 271.54-651.01z" class="fil1 str1"/><path d="M50212.36 17337.88s-244.42 220.08-120.69 410.71c123.74 190.62 94.94 489.12 94.94 489.12" class="fil0 str2"/><path d="M50211.72 17338.83s-264.13-208.96-158.14-404.61c106-195.65 49.87-492.29 49.87-492.29" class="fil0 str2"/><path d="M47481.27 17283.52c413.2-61.4 600.53-220.51 810.98-225.53 519.16-12.39 908.68 390.69 61.64 410.9-210.45 5.02-444.02-144.05-872.62-185.37z" class="fil1 str1"/><path d="M48626.91 16536.59c64.15 229.74 282.92 343.75 277.67 458.79-5.26 115.03-85.18 230.41-309.2 231.44 224.02-1.03 293.44 113.67 288.18 228.7-5.25 115.04-234.53 231.1-319.71 461.52-64.16-229.73-282.93-343.74-277.67-458.78 5.25-115.04 85.17-230.42 309.19-231.44-224.02 1.02-293.43-113.67-288.18-228.71s234.53-231.1 319.72-461.52z" class="fil1 str1"/><path d="M48652.82 17235.24s-260.3 148.35-151.22 293.71c109.09 145.35 57.95 361.77 57.95 361.77" class="fil0 str2"/><path d="M48652.11 17235.9s-247.74-165.78-127.33-303.26c120.41-137.48 86.71-356.81 86.71-356.81" class="fil0 str2"/></g><path d="M66735.54 16866.31c11391.57-1694.4-7908.02-20596.88-8110.38 18048.87" class="fil0 str0"/><g id="_2014280806720"><path d="M61706.89 27591.22c-941.8-80.44-1485.06 197.36-1941.49 93.55-456.43-103.81-883.92-334.81-797.11-716.42-86.82 381.6-572.19 404.99-1028.62 301.18-456.43-103.81-826.05-589.23-1709.97-924.04 941.8 80.42 1485.05-197.37 1941.48-93.56 456.44 103.81 883.92 334.81 797.11 716.41 86.82-381.6 572.19-404.98 1028.62-301.17 456.44 103.81 826.05 589.23 1709.98 924.05z" class="fil1 str1"/><path d="M58911.4 27059.03s-485.73-564.78-1109.42-499.25c-623.68 65.52-1465.62-199.89-1465.62-199.89" class="fil0 str2"/><path d="M58909.05 27057.28s761.38-284.33 1260.54 33.71c499.17 318.04 1387.14 441.66 1387.14 441.66" class="fil0 str2"/></g><g id="_2014280806480"><path d="M61951.18 24759.87c-941.8-80.44-1485.06 197.36-1941.49 93.55-456.43-103.81-883.92-334.81-797.11-716.42-86.82 381.61-572.19 404.99-1028.62 301.18-456.43-103.81-826.05-589.23-1709.97-924.04 941.8 80.43 1485.05-197.37 1941.48-93.56 456.44 103.81 883.92 334.81 797.12 716.41 86.81-381.6 572.18-404.98 1028.61-301.17 456.44 103.81 826.05 589.23 1709.98 924.05z" class="fil1 str1"/><path d="M59155.69 24227.69s-485.73-564.78-1109.41-499.26c-623.69 65.53-1465.63-199.89-1465.63-199.89" class="fil0 str2"/><path d="M59153.34 24225.93s761.38-284.32 1260.54 33.72c499.17 318.04 1387.14 441.66 1387.14 441.66" class="fil0 str2"/></g><g id="_2014280808976"><path d="M62544.54 21667.18c-941.8-80.44-1485.05 197.36-1941.49 93.55-456.43-103.81-883.91-334.81-797.11-716.42-86.82 381.6-572.19 404.99-1028.62 301.18-456.43-103.81-826.04-589.23-1709.97-924.04 941.8 80.43 1485.05-197.37 1941.48-93.56 456.44 103.81 883.92 334.81 797.12 716.41 86.81-381.6 572.18-404.98 1028.62-301.17 456.43 103.81 826.04 589.23 1709.97 924.05z" class="fil1 str1"/><path d="M59749.05 21134.99s-485.73-564.78-1109.41-499.25c-623.69 65.52-1465.63-199.89-1465.63-199.89" class="fil0 str2"/><path d="M59746.7 21133.24s761.38-284.33 1260.54 33.71c499.17 318.04 1387.14 441.66 1387.14 441.66" class="fil0 str2"/></g><g id="_2014283830400"><path d="M63242.35 18897.86c-941.8-80.44-1485.05 197.36-1941.49 93.55-456.43-103.81-883.91-334.81-797.11-716.42-86.81 381.6-572.18 404.99-1028.62 301.18-456.43-103.81-826.04-589.23-1709.97-924.04 941.8 80.43 1485.05-197.37 1941.49-93.56 456.43 103.81 883.91 334.81 797.11 716.41 86.81-381.6 572.18-404.98 1028.62-301.17 456.43 103.81 826.04 589.23 1709.97 924.05z" class="fil1 str1"/><path d="M60446.86 18365.67s-485.73-564.78-1109.41-499.25c-623.69 65.52-1465.63-199.89-1465.63-199.89" class="fil0 str2"/><path d="M60444.51 18363.92s761.38-284.33 1260.54 33.71c499.17 318.04 1387.14 441.66 1387.14 441.66" class="fil0 str2"/></g><g id="_2014283827568"><path d="M64189.61 16265.73c-941.8-80.44-1485.05 197.36-1941.49 93.55-456.43-103.81-883.91-334.81-797.1-716.42-86.82 381.6-572.19 404.99-1028.63 301.18-456.43-103.81-826.04-589.23-1709.97-924.04 941.8 80.42 1485.05-197.37 1941.49-93.56 456.43 103.81 883.91 334.81 797.11 716.41 86.81-381.6 572.18-404.98 1028.62-301.17 456.43 103.81 826.04 589.22 1709.97 924.05z" class="fil1 str1"/><path d="M61394.12 15733.54s-485.73-564.78-1109.41-499.25c-623.69 65.52-1465.63-199.89-1465.63-199.89" class="fil0 str2"/><path d="M61391.77 15731.79s761.38-284.33 1260.54 33.71c499.17 318.04 1387.14 441.66 1387.14 441.66" class="fil0 str2"/></g><g id="_2014283824784"><path d="M65055.39 14779.71c-863.17-323.7-1483.99-202.78-1877.74-421.17-393.75-218.39-711.81-549.87-484.75-889.18-227.07 339.31-696.5 234.01-1090.25 15.62s-560.43-776.09-1272.25-1325.96c863.18 323.69 1484 202.78 1877.75 421.17 393.75 218.39 711.81 549.86 484.76 889.16 227.06-339.29 696.49-233.99 1090.24-15.6 393.75 218.38 560.43 776.08 1272.24 1325.96z" class="fil1 str1"/><path d="M62604.53 13540.47s-246.78-663.5-863.43-765.14c-616.66-101.63-1314.95-574.63-1314.95-574.63" class="fil0 str2"/><path d="M62602.97 13538.19s830.27-69.82 1183.34 363.08c353.08 432.89 1148.8 783.43 1148.8 783.43" class="fil0 str2"/></g><g id="_2014283821472"><path d="M65655.6 13846.44c-451.52-454.63-916.55-543.97-1094.47-798.88-177.91-254.9-260.12-564.98 27-730.55-287.12 165.56-560.74-34.16-738.65-289.06-177.91-254.9-68.7-675.37-328.83-1240.36 451.53 454.62 916.56 543.96 1094.48 798.87 177.91 254.9 260.12 564.98-26.99 730.55 287.11-165.56 560.73 34.16 738.64 289.06 177.91 254.9 68.7 675.37 328.82 1240.37z" class="fil1 str1"/><path d="M64500.56 12340.5s97.36-513.55-276.61-751.26c-373.97-237.72-655.5-747.34-655.5-747.34" class="fil0 str2"/><path d="M64500.41 12338.54s585.49 181.22 651 569.05c65.51 387.84 461.07 841.97 461.07 841.97" class="fil0 str2"/></g><g id="_2014283818448"><path d="M66983.88 12340.78c27.52-485.46-196.47-754.48-135.17-991.95 61.31-237.48 217.7-464.43 503-432.9-285.29-31.54-319.08-279.53-257.78-517 61.31-237.48 407.91-443.41 625.61-907.85-27.52 485.46 196.48 754.47 135.17 991.95-61.3 237.47-217.7 464.43-502.99 432.9 285.29 31.53 319.08 279.52 257.77 517-61.3 237.47-407.9 443.41-625.61 907.85z" class="fil1 str1"/><path d="M67282.68 10889.85s401.38-268.15 331.71-585.6c-69.66-317.45 98.12-758.01 98.12-758.01" class="fil0 str2"/><path d="M67283.9 10888.58s236.23 380.6 17.87 647.25c-218.36 266.66-279.66 725.99-279.66 725.99" class="fil0 str2"/></g><g id="_2014283820704"><path d="M68221.25 12742.9c457.24-225.54 590.87-501.93 838.49-581.99 247.61-80.06 533.21-94.68 647.19 101.64-113.98-196.32 95.65-341.82 343.26-421.88 247.61-80.06 609.2 36.21 1142.42-58.47-457.24 225.55-590.87 501.94-838.48 582-247.62 80.06-533.21 94.68-647.19-101.64 113.97 196.32-95.65 341.82-343.26 421.87-247.62 80.06-609.21-36.2-1142.43 58.47z" class="fil1 str1"/><path d="M69696.21 12205.82s445.84 119.79 700.95-83.18c255.12-202.96 741.54-317.28 741.54-317.28" class="fil0 str2"/><path d="M69697.97 12205.96s-229.43 339.97-582.31 335.25c-352.87-4.73-803.15 186.37-803.15 186.37" class="fil0 str2"/></g><g id="_2014283817680"><path d="M68836.76 13794.8c483.92-34.43 725.79-217.69 967.77-201.71 241.98 15.98 483.98 98.38 484.08 297.62-.1-199.24 241.85-249.67 483.82-233.69 241.98 15.99 484.05 231.22 968.03 329.59-483.92 34.45-725.79 217.71-967.77 201.72-241.98-15.98-483.98-98.37-484.08-297.61.1 199.23-241.85 249.66-483.82 233.68-241.98-15.99-484.05-231.22-968.03-329.6z" class="fil1 str1"/><path d="M70306.86 13840.47s309.72 245.99 616.53 163.31c306.81-82.68 761.66-15.93 761.66-15.93" class="fil0 str2"/><path d="M70308.25 13841.17s-351.07 203.92-639.2 83.36c-288.13-120.55-749.88-112.16-749.88-112.16" class="fil0 str2"/></g><g id="_2014283815952"><path d="M68524.09 14627.76c399.63 229.73 726.33 216.46 900.77 356.95 174.45 140.48 298.14 332.21 145.89 485.97 152.25-153.75 377.44-64.51 551.89 75.97 174.44 140.49 196.63 434.73 494.78 766.95-399.64-229.73-726.34-216.46-900.78-356.95-174.44-140.49-298.14-332.21-145.89-485.97-152.25 153.75-377.44 64.51-551.89-75.97-174.44-140.49-196.63-434.73-494.77-766.95z" class="fil1 str1"/><path d="M69623.24 15441.59s50.86 353.79 350.75 452.51c299.88 98.71 599.73 391.1 599.73 391.1" class="fil0 str2"/><path d="M69623.77 15442.87s-426.71-28.63-556.82-274.23c-130.1-245.6-492.71-483.69-492.71-483.69" class="fil0 str2"/></g><g id="_2014283816336"><path d="M67437.88 15758.58c285.03 205.25 538.4 217.92 658.75 338.53 120.35 120.61 196.36 277.19 63.34 385.13 133.02-107.93 297.71-23.3 418.06 97.31 120.35 120.61 107.68 349.15 304.04 626.34-285.03-205.24-538.4-217.92-658.75-338.53-120.35-120.61-196.36-277.19-63.35-385.12-133.01 107.93-297.7 23.29-418.05-97.31-120.35-120.61-107.68-349.16-304.04-626.35z" class="fil1 str1"/><path d="M68203.41 16463.48s3.42 276.49 224.77 373.68c221.35 97.18 423.06 343.76 423.06 343.76" class="fil0 str2"/><path d="M68203.69 16464.5s-326.28-52.01-401.78-250.6-331.13-407.68-331.13-407.68" class="fil0 str2"/></g><path d="M65820.42 17151.83c308.64-136.43 405.7-324.23 571.47-368.53 408.94-109.29 850.47 204.34 183.25 382.65-165.77 44.31-400.27-54.89-754.72-14.12z" class="fil1 str1"/><g id="_2014284403232"><path d="M66487.79 16220.28c126.08 208.37 337.35 276.7 370.75 388.06 33.4 111.35 7.51 237.04-170.37 280.06 177.88-43.02 270.56 54 303.96 165.35 33.4 111.36-111.08 265.73-103.58 502.77-126.08-208.37-337.35-276.71-370.75-388.06-33.4-111.35-7.51-237.04 170.37-280.06-177.88 43.01-270.56-54-303.96-165.36-33.4-111.35 111.08-265.72 103.58-502.76z" class="fil1 str1"/><path d="M66736.62 16885.7s-158.62 191.17-24.36 310.16c134.26 118.99 164.27 336.21 164.27 336.21" class="fil0 str2"/><path d="M66736.27 16886.47s-251.23-112.57-200.35-267.06c50.88-154.49-47.57-358.6-47.57-358.6" class="fil0 str2"/></g><path d="M86189.16 14734.37c4574.83-6600.93-11423.92-18401.85-11592.35 20243.91" class="fil0 str0"/><g id="_2014284414608"><path d="M77161.77 27654.31c-783.87-80.44-1236.03 197.36-1615.92 93.55-379.9-103.81-735.7-334.81-663.45-716.42-72.26 381.61-476.24 404.99-856.13 301.18-379.9-103.81-687.53-589.23-1423.24-924.04 783.88 80.43 1236.03-197.37 1615.93-93.56 379.89 103.81 735.69 334.81 663.44 716.41 72.26-381.6 476.24-404.98 856.14-301.17 379.89 103.81 687.53 589.23 1423.23 924.05z" class="fil1 str1"/><path d="M74835.05 27122.13s-404.28-564.78-923.38-499.26c-519.1 65.53-1219.86-199.89-1219.86-199.89" class="fil0 str2"/><path d="M74833.09 27120.37s633.71-284.32 1049.17 33.72c415.46 318.04 1154.53 441.66 1154.53 441.66" class="fil0 str2"/></g><g id="_2014284410960"><path d="M77365.1 24822.96c-783.88-80.43-1236.03 197.36-1615.93 93.55-379.89-103.81-735.69-334.81-663.44-716.42-72.26 381.61-476.24 404.99-856.14 301.18-379.89-103.81-687.53-589.22-1423.23-924.04 783.87 80.43 1236.03-197.36 1615.92-93.55 379.9 103.81 735.7 334.81 663.45 716.4 72.26-381.59 476.24-404.97 856.13-301.16 379.9 103.81 687.53 589.22 1423.24 924.04z" class="fil1 str1"/><path d="M75038.37 24290.78s-404.28-564.78-923.38-499.25c-519.1 65.52-1219.85-199.9-1219.85-199.9" class="fil0 str2"/><path d="M75036.42 24289.02s633.7-284.32 1049.17 33.72c415.46 318.04 1154.53 441.66 1154.53 441.66" class="fil0 str2"/></g><g id="_2014284412064"><path d="M77858.96 21730.27c-783.87-80.44-1236.03 197.36-1615.92 93.55-379.9-103.81-735.7-334.81-663.45-716.42-72.26 381.61-476.24 404.99-856.14 301.18-379.89-103.81-687.53-589.23-1423.23-924.04 783.87 80.43 1236.03-197.37 1615.93-93.56 379.89 103.81 735.69 334.81 663.44 716.41 72.26-381.6 476.24-404.98 856.14-301.17 379.89 103.81 687.53 589.23 1423.23 924.05z" class="fil1 str1"/><path d="M75532.24 21198.09s-404.28-564.78-923.38-499.26c-519.1 65.53-1219.86-199.89-1219.86-199.89" class="fil0 str2"/><path d="M75530.28 21196.33s633.71-284.32 1049.17 33.72c415.46 318.04 1154.53 441.66 1154.53 441.66" class="fil0 str2"/></g><g id="_2014284408128"><path d="M78439.76 18960.95c-783.88-80.44-1236.03 197.36-1615.93 93.55-379.89-103.81-735.69-334.81-663.44-716.42-72.26 381.61-476.24 404.99-856.14 301.18-379.89-103.81-687.53-589.23-1423.23-924.04 783.87 80.43 1236.03-197.37 1615.92-93.56 379.9 103.81 735.7 334.81 663.45 716.41 72.26-381.6 476.24-404.98 856.13-301.17 379.9 103.81 687.53 589.23 1423.24 924.05z" class="fil1 str1"/><path d="M76113.03 18428.77s-404.28-564.78-923.38-499.26c-519.1 65.53-1219.85-199.89-1219.85-199.89" class="fil0 str2"/><path d="M76111.08 18427.01s633.7-284.32 1049.17 33.72c415.46 318.04 1154.53 441.66 1154.53 441.66" class="fil0 str2"/></g><g id="_2014284408032"><path d="M79228.18 16328.82c-783.88-80.44-1236.03 197.36-1615.93 93.55-379.89-103.81-735.7-334.81-663.44-716.42-72.26 381.61-476.24 404.99-856.14 301.18s-687.53-589.23-1423.24-924.04c783.88 80.43 1236.04-197.37 1615.93-93.56 379.9 103.81 735.7 334.81 663.45 716.41 72.26-381.6 476.24-404.98 856.13-301.17 379.9 103.81 687.53 589.23 1423.24 924.05z" class="fil1 str1"/><path d="M76901.45 15796.64s-404.28-564.78-923.38-499.26c-519.1 65.53-1219.86-199.89-1219.86-199.89" class="fil0 str2"/><path d="M76899.5 15794.88s633.7-284.32 1049.16 33.72c415.47 318.04 1154.54 441.66 1154.54 441.66" class="fil0 str2"/></g><g id="_2014284407696"><path d="M79948.78 14842.8c-718.43-323.69-1235.15-202.78-1562.87-421.17-327.73-218.39-592.45-549.87-403.47-889.18-188.99 339.31-579.71 234.01-907.43 15.62-327.72-218.39-466.45-776.08-1058.91-1325.95 718.44 323.68 1235.16 202.77 1562.88 421.16 327.72 218.39 592.45 549.87 403.47 889.17 188.99-339.3 579.7-234 907.43-15.61 327.72 218.39 466.45 776.08 1058.9 1325.96z" class="fil1 str1"/><path d="M77908.89 13603.56s-205.39-663.5-718.64-765.13c-513.26-101.64-1094.45-574.63-1094.45-574.63" class="fil0 str2"/><path d="M77907.59 13601.28s691.05-69.81 984.92 363.08c293.86 432.9 956.16 783.43 956.16 783.43" class="fil0 str2"/></g><g id="_2014284406160"><path d="M79820.83 12211.57c-375.8-454.63-762.86-543.97-910.94-798.87-148.08-254.91-216.5-564.99 22.47-730.56-238.98 165.57-466.71-34.15-614.79-289.06-148.08-254.9-57.18-675.37-273.69-1240.36 375.81 454.63 762.87 543.96 910.95 798.87 148.08 254.9 216.5 564.98-22.46 730.55 238.97-165.56 466.7 34.16 614.78 289.06 148.08 254.91 57.18 675.37 273.68 1240.37z" class="fil1 str1"/><path d="M78859.47 10705.64s81.04-513.56-230.22-751.27c-311.27-237.71-545.58-747.34-545.58-747.34" class="fil0 str2"/><path d="M78859.35 10703.67s487.31 181.22 541.83 569.06c54.53 387.83 383.76 841.96 383.76 841.96" class="fil0 str2"/></g><g id="_1979022512832"><path d="M81780.09 9843.03c-287.56-391.79-601.71-483.64-711.43-700.34-109.72-216.7-151.29-475.02 53.13-599.88-204.43 124.86-382.28-50.23-492-266.93-109.72-216.7-15-558.26-166.3-1033.28 287.57 391.79 601.72 483.64 711.44 700.34 109.71 216.7 151.29 475.01-53.13 599.87 204.42-124.85 382.28 50.24 492 266.94 109.71 216.7 15 558.26 166.29 1033.28z" class="fil1 str1"/><path d="M81060.72 8558.68s91.02-418.6-153.74-628.9c-244.77-210.3-413.34-640.62-413.34-640.62" class="fil0 str2"/><path d="M81060.72 8557.06s392.25 172.18 418.71 493.8c26.45 321.61 275.73 710.78 275.73 710.78" class="fil0 str2"/></g><g id="_1979022520272"><path d="M83375.74 9154.18c103.86-430.02-16.58-702.51 69.82-906.02 86.4-203.52 241.74-384.04 448.59-315.06-206.85-68.98-189.39-295.49-102.99-499 86.4-203.51 379.65-338.05 621.39-722.09-103.86 430.02 16.59 702.51-69.81 906.03-86.4 203.51-241.74 384.03-448.58 315.06 206.84 68.98 189.38 295.48 102.98 499-86.4 203.51-379.65 338.05-621.4 722.08z" class="fil1 str1"/><path d="M83847.27 7899.91s344.69-182.31 347.38-476.04c2.69-293.73 203.2-663.56 203.2-663.56" class="fil0 str2"/><path d="M83848.4 7898.96s110.38 373.98-97.88 581.13c-208.27 207.14-332.77 608.98-332.77 608.98" class="fil0 str2"/></g><g id="_1979022520080"><path d="M84673.94 9435c319.55-247.59 389.12-510.79 566.93-606.7 177.81-95.92 391.7-136.08 499.94 31.2-108.24-167.28 33.5-318.96 211.31-414.87 177.81-95.92 463.86-24.56 855.56-160.63-319.55 247.59-389.12 510.78-566.93 606.7-177.81 95.92-391.7 136.08-499.94-31.2 108.24 167.28-33.5 318.95-211.31 414.87-177.81 95.91-463.86 24.55-855.56 160.63z" class="fil1 str1"/><path d="M85726.29 8809.06s350.03 66.63 519.6-141.44c169.57-208.07 523.73-357.55 523.73-357.55" class="fil0 str2"/><path d="M85727.64 8809.02s-134.68 329.88-401.52 358.84c-266.85 28.95-585.05 244.65-585.05 244.65" class="fil0 str2"/></g><g id="_1979022515808"><path d="M85600.84 10737.73c392.31-97.52 562.21-310.23 763.61-326.2 201.4-15.98 413.29 33.62 444.79 230.36-31.49-196.74 159.41-278.28 360.81-294.26 201.4-15.97 434.3 164.79 847.59 198.42-392.3 97.52-562.2 310.23-763.6 326.21-201.4 15.97-413.29-33.63-444.79-230.36 31.49 196.73-159.41 278.28-360.81 294.25-201.4 15.98-434.3-164.79-847.6-198.42z" class="fil1 str1"/><path d="M86816.33 10589.89s293.34 202.26 532.47 80.35c239.13-121.91 623.49-115.7 623.49-115.7" class="fil0 str2"/><path d="M86817.57 10590.4s-256.38 247.44-512.21 166.2c-255.82-81.23-634.01-12.34-634.01-12.34" class="fil0 str2"/></g><g id="_1979022515712"><path d="M86011.57 12543.27c313.64 5.61 483.69-119.75 637.87-91.31 154.18 28.43 303.07 108.13 287.21 261.94 15.86-153.81 175.33-176.63 329.51-148.19 154.18 28.43 292.5 210.67 595.57 318.81-313.65-5.61-483.69 119.75-637.87 91.31-154.18-28.43-303.07-108.13-287.21-261.93-15.87 153.8-175.33 176.62-329.51 148.18-154.19-28.43-292.5-210.67-595.57-318.81z" class="fil1 str1"/><path d="M86952.39 12676.33s179.32 210.48 383.04 167.08c203.72-43.41 490.6 38.38 490.6 38.38" class="fil0 str2"/><path d="M86953.23 12676.96s-241.85 134.05-417.32 21.82c-175.48-112.23-472.8-136.47-472.8-136.47" class="fil0 str2"/></g><path d="M85821.06 15307.93c89.8-276.66 17.3-467.81 85.68-595.58 168.68-315.19 650.87-345.23 375.66 169.02-68.37 127.77-277.63 192.15-461.34 426.56z" class="fil1 str1"/><g id="_1979022518208"><path d="M85572.7 14252.16c220.29 76.82 394.19 3.69 491.59 64.41 97.4 60.72 169.29 166.04 92.78 299.89 76.51-133.85 199.41-117.74 296.8-57.03 97.4 60.72 118.28 255.28 287.57 421.33-220.3-76.82-394.2-3.69-491.6-64.41-97.39-60.72-169.29-166.04-92.78-299.89-76.51 133.85-199.4 117.74-296.8 57.02-97.4-60.71-118.28-255.27-287.56-421.32z" class="fil1 str1"/><path d="M86184.18 14586.49s38.01 229.19 201.05 237.03c163.05 7.84 332.02 146.62 332.02 146.62" class="fil0 str2"/><path d="M86184.5 14587.24s-228.56 64.45-305.53-76.03c-76.96-140.49-277.76-230.23-277.76-230.23" class="fil0 str2"/></g><path d="M103487.41 7794.34C100030.67 4830.67 90637.92-3612.8 90481.64 35032.96" class="fil0 str0"/><g id="_1979022517440"><path d="M92861.53 27708.99c-727.31-80.43-1146.84 197.36-1499.33 93.55-352.48-103.81-682.61-334.81-615.57-716.42-67.05 381.61-441.88 404.99-794.36 301.18-352.49-103.81-637.92-589.22-1320.54-924.04 727.31 80.43 1146.84-197.37 1499.32-93.56 352.49 103.81 682.62 334.81 615.58 716.41 67.04-381.59 441.88-404.98 794.36-301.17s637.92 589.23 1320.54 924.05z" class="fil1 str1"/><path d="M90702.69 27176.81s-375.11-564.78-856.75-499.26c-481.65 65.53-1131.84-199.89-1131.84-199.89" class="fil0 str2"/><path d="M90700.88 27175.05s587.98-284.32 973.46 33.72c385.49 318.04 1071.23 441.66 1071.23 441.66" class="fil0 str2"/></g><g id="_1979022517104"><path d="M93050.18 24877.65c-727.31-80.44-1146.84 197.36-1499.32 93.55-352.49-103.81-682.62-334.81-615.58-716.42-67.04 381.6-441.87 404.99-794.36 301.18-352.48-103.81-637.92-589.23-1320.54-924.04 727.32 80.43 1146.85-197.37 1499.33-93.56s682.61 334.81 615.58 716.41c67.04-381.6 441.87-404.98 794.36-301.17 352.48 103.81 637.92 589.23 1320.53 924.05z" class="fil1 str1"/><path d="M90891.35 24345.46s-375.11-564.78-856.76-499.25c-481.64 65.52-1131.84-199.89-1131.84-199.89" class="fil0 str2"/><path d="M90889.53 24343.71s587.98-284.33 973.47 33.71c385.48 318.04 1071.22 441.66 1071.22 441.66" class="fil0 str2"/></g><g id="_2014281327392"><path d="M93197.24 21693.49c-727.31-80.44-1146.84 197.36-1499.33 93.55-352.48-103.81-682.61-334.81-615.57-716.42-67.05 381.61-441.88 404.99-794.36 301.18s-637.92-589.23-1320.54-924.04c727.31 80.43 1146.84-197.37 1499.33-93.56 352.48 103.81 682.61 334.81 615.57 716.41 67.05-381.6 441.88-404.98 794.36-301.17 352.49 103.81 637.92 589.23 1320.54 924.05z" class="fil1 str1"/><path d="M91038.4 21161.31s-375.11-564.79-856.75-499.26c-481.64 65.52-1131.84-199.89-1131.84-199.89" class="fil0 str2"/><path d="M91036.59 21159.55s587.98-284.32 973.46 33.71c385.49 318.04 1071.23 441.66 1071.23 441.66" class="fil0 str2"/></g><g id="_2014281325568"><path d="M93509.83 18924.17c-727.32-80.44-1146.85 197.36-1499.33 93.55-352.48-103.81-682.61-334.81-615.57-716.42-67.05 381.6-441.88 404.99-794.37 301.18-352.48-103.81-637.92-589.23-1320.54-924.04 727.32 80.43 1146.85-197.37 1499.33-93.56 352.49 103.81 682.61 334.81 615.58 716.41 67.04-381.6 441.87-404.98 794.36-301.17 352.48 103.81 637.92 589.23 1320.54 924.05z" class="fil1 str1"/><path d="M91350.99 18391.99s-375.11-564.79-856.76-499.26c-481.64 65.52-1131.83-199.89-1131.83-199.89" class="fil0 str2"/><path d="M91349.17 18390.23s587.98-284.33 973.47 33.71c385.48 318.04 1071.23 441.66 1071.23 441.66" class="fil0 str2"/></g><g id="_2014281323840"><path d="M93901.9 15956.67c-727.31-80.43-1146.84 197.36-1499.32 93.55-352.49-103.81-682.62-334.81-615.58-716.42-67.04 381.61-441.87 404.99-794.36 301.18-352.48-103.81-637.92-589.22-1320.54-924.04 727.31 80.43 1146.84-197.37 1499.33-93.56 352.48 103.81 682.61 334.81 615.57 716.41 67.05-381.59 441.88-404.98 794.36-301.17 352.49 103.81 637.92 589.23 1320.54 924.05z" class="fil1 str1"/><path d="M91743.07 15424.49s-375.11-564.78-856.76-499.26c-481.64 65.53-1131.84-199.89-1131.84-199.89" class="fil0 str2"/><path d="M91741.25 15422.73s587.98-284.32 973.47 33.72c385.48 318.04 1071.22 441.66 1071.22 441.66" class="fil0 str2"/></g><g id="_2014281323744"><path d="M94372.49 13586.51c-666.59-323.7-1146.02-202.79-1450.1-421.18-304.08-218.39-549.7-549.86-374.35-889.17-175.36 339.3-537.88 234-841.96 15.61-304.07-218.39-432.79-776.08-982.5-1325.95 666.6 323.69 1146.03 202.77 1450.11 421.16 304.08 218.39 549.7 549.87 374.35 889.17 175.36-339.3 537.88-234 841.96-15.61 304.07 218.39 432.79 776.09 982.49 1325.97z" class="fil1 str1"/><path d="M92479.79 12347.27s-190.57-663.5-666.79-765.14c-476.22-101.64-1015.47-574.63-1015.47-574.63" class="fil0 str2"/><path d="M92478.59 12344.98s641.18-69.81 913.85 363.08c272.66 432.9 887.17 783.43 887.17 783.43" class="fil0 str2"/></g><g id="_2014281321104"><path d="M94819.41 10063.28c-446.02-341.81-814.37-327.88-1008.32-535.75-193.95-207.87-329.77-489.65-155.38-711.46-174.39 221.8-426.47 87.86-620.42-120.01-193.95-207.86-213.5-637.53-543.28-1127.19 446.03 341.81 814.37 327.88 1008.32 535.75 193.95 207.86 329.77 489.65 155.39 711.45 174.39-221.79 426.46-87.85 620.41 120.01 193.95 207.87 213.51 637.53 543.28 1127.2z" class="fil1 str1"/><path d="M93596.04 8857.64s-50.76-517.03-386.82-666.03c-336.07-149.01-668.5-580.58-668.5-580.58" class="fil0 str2"/><path d="M93595.46 8855.77s480.26 48.86 622.3 409.35c142.05 360.49 546.21 713.88 546.21 713.88" class="fil0 str2"/></g><g id="_2014281321248"><path d="M95901.93 7489.16c-266.82-391.8-558.3-483.64-660.1-700.35-101.8-216.7-140.38-475.01 49.3-599.87-189.68 124.85-354.7-50.23-456.5-266.94-101.8-216.7-13.92-558.26-154.3-1033.28 266.82 391.79 558.3 483.64 660.1 700.34 101.8 216.71 140.38 475.02-49.29 599.88 189.67-124.86 354.69 50.23 456.5 266.93 101.8 216.71 13.92 558.26 154.29 1033.29z" class="fil1 str1"/><path d="M95234.47 6204.81s84.45-418.6-142.65-628.9c-227.11-210.3-383.52-640.62-383.52-640.62" class="fil0 str2"/><path d="M95234.46 6203.18s363.96 172.19 388.5 493.8c24.55 321.61 255.84 710.79 255.84 710.79" class="fil0 str2"/></g><g id="_2014281316688"><path d="M97425.63 6437.74c-118.07-423.69-342.11-598.21-368.15-817.52-26.04-219.3 13.92-453.53 211.91-498.33-197.99 44.79-290.03-159.59-316.07-378.89-26.04-219.31 145.92-483.41 159.83-936.95 118.08 423.69 342.11 598.21 368.15 817.51 26.04 219.31-13.91 453.54-211.9 498.33 197.99-44.78 290.02 159.59 316.06 378.9 26.04 219.31-145.91 483.4-159.83 936.95z" class="fil1 str1"/><path d="M97216.3 5116.89s190.81-331.3 55.48-586.27c-135.32-254.97-147.8-675.44-147.8-675.44" class="fil0 str2"/><path d="M97216.76 5115.5s263.48 267.22 193.59 551.14c-69.89 283.92 18.45 693.69 18.45 693.69" class="fil0 str2"/></g><g id="_2014281316064"><path d="M98799.06 6223.32c21.36-403.58-120.48-628.85-79.31-825.95 41.18-197.1 143.35-384.8 326.36-356.64-183.01-28.17-202.84-234.65-161.66-431.75 41.17-197.1 265.36-366.03 408.7-750.84-21.35 403.59 120.49 628.85 79.32 825.95-41.18 197.1-143.35 384.81-326.36 356.64 183.01 28.17 202.84 234.66 161.66 431.76-41.17 197.09-265.36 366.03-408.71 750.83z" class="fil1 str1"/><path d="M99001.97 5018.57s259.84-220.3 217.49-484.81c-42.34-264.5 68.76-629.79 68.76-629.79" class="fil0 str2"/><path d="M99002.76 5017.53s148.85 318.15 6.58 538.45c-142.27 220.31-185.12 601.94-185.12 601.94" class="fil0 str2"/></g><g id="_2014281314960"><path d="M100185.87 6810.57c163.78-363.67 113.27-630.41 221.63-795.27s269.67-295.75 428.54-193.87c-158.87-101.88-103.46-300.7 4.9-465.56 108.36-164.85 375.59-227.83 645.27-523.58-163.77 363.67-113.26 630.41-221.62 795.27-108.36 164.85-269.67 295.75-428.54 193.87 158.86 101.88 103.45 300.7-4.91 465.55-108.36 164.86-375.59 227.83-645.27 523.59z" class="fil1 str1"/><path d="M100803.21 5782.67s318.48-95.61 373.81-357.31c55.33-261.71 288.27-552.81 288.27-552.81" class="fil0 str2"/><path d="M100804.31 5782.04s23.83 355.38-186.13 499.74c-209.96 144.35-385.74 478.84-385.74 478.84" class="fil0 str2"/></g><g id="_2014281313280"><path d="M101498.84 7327.76c159-262.76 144.25-473.42 242.6-588.95 98.34-115.53 234.37-199.34 347.46-104.2-113.08-95.14-52.43-242.38 45.91-357.9 98.34-115.53 309.77-135.92 544.15-335.26-158.99 262.76-144.24 473.42-242.59 588.95-98.34 115.53-234.38 199.34-347.46 104.21 113.08 95.13 52.43 242.37-45.91 357.9-98.34 115.52-309.78 135.91-544.16 335.25z" class="fil1 str1"/><path d="M102067.13 6601.32s253.84-40.13 320.13-235.79c66.28-195.66 271.96-395.29 271.96-395.29" class="fil0 str2"/><path d="M102068.04 6600.94s-13.82 276.11-188.52 365.17c-174.71 89.06-340.31 328.09-340.31 328.09" class="fil0 str2"/></g><path d="M103794.92 8128.31c-232.36-147.94-420.12-118.85-521.99-213.43-251.31-233.32-181-710.46 229.02-329.79 101.87 94.58 117.86 312.83 292.97 543.22z" class="fil1 str1"/><g id="_2014281314720"><path d="M102788.65 8140.6c114.12-198.25 83.06-383.92 157.74-465.74s184.59-129.03 290.32-25.18c-105.73-103.85-66.29-220.28 8.39-302.1 74.67-81.82 255.08-59.8 439.67-188.83-114.11 198.25-83.06 383.92-157.73 465.74-74.68 81.82-184.59 129.03-290.32 25.19 105.73 103.84 66.29 220.27-8.39 302.1-74.67 81.82-255.08 59.79-439.68 188.82z" class="fil1 str1"/><path d="M103215.06 7616.68s215.23 12.86 255.3-144.56c40.07-157.41 199.91-292.08 199.91-292.08" class="fil0 str2"/><path d="M103215.81 7616.53s12.14 237.12-130.64 281.61c-142.78 44.5-264.65 220.91-264.65 220.91" class="fil0 str2"/></g><path d="M119420.12 5285.08c-3505.21-1245.3-12320.69-8859.91-12536.62 29785.85" class="fil0 str0"/><g id="_2014281307760"><path d="M110171.76 27746.96c-1004.92-80.44-1584.58 197.36-2071.6 93.55-487.02-103.81-943.16-334.81-850.53-716.42-92.64 381.61-610.54 404.99-1097.56 301.18s-881.41-589.23-1824.58-924.04c1004.92 80.43 1584.58-197.37 2071.61-93.56 487.02 103.81 943.15 334.81 850.53 716.41 92.64-381.59 610.53-404.98 1097.56-301.17 487.02 103.81 881.41 589.23 1824.57 924.05z" class="fil1 str1"/><path d="M107188.92 27214.78s-518.28-564.78-1183.77-499.26c-665.48 65.53-1563.84-199.89-1563.84-199.89" class="fil0 str2"/><path d="M107186.41 27213.02s812.41-284.32 1345.03 33.72c532.62 318.04 1480.1 441.66 1480.1 441.66" class="fil0 str2"/></g><g id="_2014281307712"><path d="M110177.6 24865.93c-1004.92-80.44-1584.58 197.35-2071.61 93.54-487.02-103.81-943.15-334.81-850.53-716.41-92.63 381.6-610.53 404.98-1097.56 301.17-487.02-103.81-881.4-589.22-1824.57-924.03 1004.92 80.42 1584.58-197.37 2071.6-93.56s943.16 334.81 850.54 716.4c92.63-381.59 610.53-404.97 1097.55-301.16 487.03 103.81 881.41 589.22 1824.58 924.05z" class="fil1 str1"/><path d="M107194.76 24333.74s-518.29-564.78-1183.77-499.25c-665.48 65.52-1563.85-199.9-1563.85-199.9" class="fil0 str2"/><path d="M107192.25 24331.98s812.4-284.32 1345.02 33.72c532.62 318.04 1480.11 441.66 1480.11 441.66" class="fil0 str2"/></g><g id="_2014281304496"><path d="M110412.63 21656.92c-1004.91-80.44-1584.57 197.35-2071.6 93.54-487.02-103.81-943.16-334.81-850.53-716.41-92.64 381.6-610.54 404.98-1097.56 301.17s-881.41-589.22-1824.57-924.03c1004.92 80.42 1584.58-197.37 2071.6-93.56s943.16 334.81 850.53 716.4c92.64-381.59 610.54-404.97 1097.56-301.16s881.41 589.22 1824.57 924.05z" class="fil1 str1"/><path d="M107429.79 21124.73s-518.28-564.78-1183.76-499.25c-665.48 65.52-1563.85-199.9-1563.85-199.9" class="fil0 str2"/><path d="M107427.29 21122.97s812.4-284.32 1345.02 33.72c532.62 318.04 1480.1 441.66 1480.1 441.66" class="fil0 str2"/></g><g id="_2014281303776"><path d="M110717.12 19061.52c-1004.92-80.43-1584.58 197.36-2071.61 93.55-487.02-103.81-943.15-334.81-850.53-716.42-92.64 381.61-610.53 404.99-1097.56 301.18-487.02-103.81-881.4-589.22-1824.57-924.04 1004.92 80.43 1584.58-197.36 2071.6-93.55 487.02 103.81 943.16 334.81 850.53 716.4 92.64-381.59 610.54-404.97 1097.56-301.16s881.41 589.22 1824.58 924.04z" class="fil1 str1"/><path d="M107734.28 18529.34s-518.29-564.78-1183.77-499.26c-665.48 65.53-1563.85-199.89-1563.85-199.89" class="fil0 str2"/><path d="M107731.77 18527.58s812.4-284.32 1345.02 33.72c532.62 318.04 1480.1 441.66 1480.1 441.66" class="fil0 str2"/></g><g id="_2014281304880"><path d="M111099.58 15994.64c-1004.92-80.44-1584.58 197.36-2071.6 93.55-487.03-103.81-943.16-334.81-850.54-716.42-92.63 381.61-610.53 404.99-1097.55 301.18-487.03-103.81-881.41-589.23-1824.58-924.04 1004.92 80.43 1584.58-197.37 2071.6-93.56 487.03 103.81 943.16 334.81 850.54 716.41 92.63-381.59 610.53-404.98 1097.55-301.17 487.03 103.81 881.41 589.23 1824.58 924.05z" class="fil1 str1"/><path d="M108116.74 15462.46s-518.29-564.78-1183.77-499.26c-665.48 65.53-1563.85-199.89-1563.85-199.89" class="fil0 str2"/><path d="M108114.23 15460.7s812.41-284.32 1345.02 33.72c532.62 318.04 1480.11 441.66 1480.11 441.66" class="fil0 str2"/></g><g id="_2014281302576"><path d="M111796.82 13042.71c-990.82-153.6-1601.33 80.58-2073.72-58.4-472.4-138.98-898.76-402.32-760.66-775.48-138.11 373.15-656.53 358.55-1128.93 219.57-472.4-138.97-806.69-651.1-1705.45-1053.43 990.82 153.58 1601.33-80.59 2073.72 58.39 472.4 138.98 898.75 402.32 760.66 775.46 138.1-373.13 656.53-358.53 1128.93-219.55 472.4 138.97 806.69 651.1 1705.45 1053.44z" class="fil1 str1"/><path d="M108891.1 12294.68s-448.11-600.2-1118.53-583.64c-670.43 16.55-1532.93-313.41-1532.93-313.41" class="fil0 str2"/><path d="M108888.81 12292.75s843.01-223.65 1335.05 131.95c492.03 355.6 1420.48 547.98 1420.48 547.98" class="fil0 str2"/></g><g id="_2014281301328"><path d="M111915.55 9718.35c-730.25-153.13-1201.15-1.89-1545.12-124.01-343.98-122.11-645.64-335.33-518.72-608.68-126.93 273.35-513.21 242.35-857.18 120.23-343.98-122.11-561.03-517.57-1206.67-852.91 730.25 153.12 1201.15 1.88 1545.12 124 343.98 122.11 645.64 335.33 518.73 608.67 126.92-273.34 513.2-242.33 857.17-120.22 343.98 122.11 561.03 517.58 1206.67 852.92z" class="fil1 str1"/><path d="M109792.95 9047.01s-296.44-465.65-798.23-479.28c-501.79-13.62-1124.97-293.5-1124.97-293.5" class="fil0 str2"/><path d="M109791.37 9045.48s643.88-134.36 988.73 150.31c344.84 284.67 1026.03 464.34 1026.03 464.34" class="fil0 str2"/></g><g id="_2014281330704"><path d="M112434.28 7528.4c-563.85-206.78-973.9-137.36-1230.2-275.3-256.3-137.95-461.35-345-307.61-552.36-153.75 207.36-461.29 138.53-717.59.59-256.31-137.95-358.86-483.25-820.22-828.25 563.85 206.77 973.9 137.36 1230.2 275.3 256.3 137.94 461.35 345 307.62 552.35 153.74-207.35 461.29-138.52 717.59-.58s358.85 483.25 820.21 828.25z" class="fil1 str1"/><path d="M110837.41 6743.86s-153.9-411.22-558.37-479.01c-404.47-67.79-857.9-365.27-857.9-365.27" class="fil0 str2"/><path d="M110836.42 6742.44s547.22-36.17 774.01 233.72c226.8 269.88 745.92 492.65 745.92 492.65" class="fil0 str2"/></g><g id="_2014281330656"><path d="M113349.9 5977.82c-416.31-300.42-796.59-328.18-970.33-502.87-173.73-174.7-278.63-398.35-72.09-545.29-206.54 146.93-449.12 21.21-622.86-153.48s-140.94-496.31-419.57-894.66c416.32 300.41 796.59 328.17 970.33 502.86s278.63 398.35 72.1 545.28c206.53-146.92 449.11-21.21 622.85 153.49 173.74 174.69 140.94 496.31 419.57 894.67z" class="fil1 str1"/><path d="M112241.03 4954.4s11.49-389.83-315.55-535.45c-327.04-145.62-615.57-501.04-615.57-501.04" class="fil0 str2"/><path d="M112240.66 4952.95s487.57 86.05 589.17 368.9c101.6 282.85 473.46 587.54 473.46 587.54" class="fil0 str2"/></g><g id="_2014281328256"><path d="M114497.19 5095.43c-276.27-342.01-603.47-436.72-703.8-622.98-100.32-186.26-125.03-403.03 101.84-494.58-226.88 91.55-402.82-64.2-503.15-250.46-100.33-186.26 26.21-464.06-98.82-867.09 276.27 342.01 603.47 436.72 703.8 622.98 100.33 186.26 125.04 403.03-101.83 494.57 226.87-91.54 402.82 64.21 503.15 250.47 100.33 186.26-26.22 464.06 98.81 867.09z" class="fil1 str1"/><path d="M113829.07 3987.44s128.44-341.94-116.02-530.84c-244.45-188.91-391.24-555.87-391.24-555.87" class="fil0 str2"/><path d="M113829.19 3986.09s404.21 165.97 408.05 434.37c3.84 268.4 239.59 605.97 239.59 605.97" class="fil0 str2"/></g><g id="_2014281329072"><path d="M115814.26 5220.01c4.36-404.22-205.4-621.8-160.84-820.82 44.56-199.02 173.88-391.85 428.2-373.3-254.32-18.56-294.53-223.77-249.97-422.79 44.56-199.02 343.44-379.48 517.32-771.33-4.35 404.23 205.41 621.81 160.85 820.83-44.56 199.02-173.88 391.85-428.19 373.29 254.31 18.56 294.52 223.77 249.96 422.79-44.56 199.02-343.44 379.48-517.33 771.33z" class="fil1 str1"/><path d="M116019.32 4006.07s344.89-233.64 269.99-495.62c-74.9-261.97 55.7-632.64 55.7-632.64" class="fil0 str2"/><path d="M116020.35 4004.98s225.22 310 42.59 537.48c-182.64 227.49-218.03 610.91-218.03 610.91" class="fil0 str2"/></g><g id="_2014286649616"><path d="M117155.68 5351.5c161.81-287.19 97.66-492.44 207.57-623.7 109.9-131.27 277.82-237.87 451.88-163.89-174.06-73.98-122.16-229.91-12.26-361.18 109.91-131.26 393.87-188.54 671.69-426.41-161.8 287.19-97.65 492.44-207.56 623.71-109.9 131.26-277.82 237.86-451.87 163.88 174.05 73.99 122.15 229.91 12.25 361.18-109.91 131.26-393.87 188.54-671.7 426.41z" class="fil1 str1"/><path d="M117778.49 4534.89s337.64-84.2 387.09-288.9c49.44-204.69 288.09-437.79 288.09-437.79" class="fil0 str2"/><path d="M117779.65 4534.37s38.89 274.83-180.65 393.41c-219.54 118.58-395.3 383.52-395.3 383.52" class="fil0 str2"/></g><path d="M119980.77 5604.83c-340.23-119.03-593.86-67.51-747.28-149.23-378.47-201.6-350.28-684.23 267.21-355.31 153.42 81.72 206.64 296.68 480.07 504.54z" class="fil1 str1"/><g id="_2014286648848"><path d="M118600.89 5738.21c128.29-210.75 59.06-391.51 149.87-481.81 90.82-90.3 234.97-150.45 395.02-59.99-160.04-90.46-122.58-210.91-31.76-301.21 90.81-90.31 341.67-90.14 576.65-240.59-128.29 210.75-59.06 391.52-149.87 481.82-90.82 90.3-234.97 150.44-395.01 59.98 160.04 90.47 122.57 210.92 31.75 301.22-90.81 90.3-341.67 90.14-576.65 240.58z" class="fil1 str1"/><path d="M119111.32 5166.23s297.36-13.14 329.83-174.39c32.47-161.26 232.65-314.33 232.65-314.33" class="fil0 str2"/><path d="M119112.33 5165.99s50.63 234.17-139.04 295.58-331.74 251.39-331.74 251.39" class="fil0 str2"/></g><g id="_2014286641552"><path d="M134390.13 7030.18c-300.2-204.45-560.04-194.09-688.2-318.82-128.16-124.74-212.43-294.5-80.76-429.6-131.67 135.1-303.72 55.39-431.88-69.34-128.16-124.74-124.64-384.57-337.08-679.07 300.21 204.44 560.04 194.08 688.2 318.82 128.16 124.73 212.43 294.49 80.77 429.59 131.67-135.09 303.71-55.39 431.87 69.35 128.16 124.73 124.65 384.56 337.08 679.07z" class="fil1 str1"/><path d="M133577.5 6307.22s-14.94-312.52-245.5-400.9-447.2-347.72-447.2-347.72" class="fil0 str2"/><path d="M133577.16 6306.09s336.09 27.04 421.58 244.38c85.48 217.34 355.75 429.01 355.75 429.01" class="fil0 str2"/></g><g id="_2014286658256"><path d="M135343.42 5700.59c-300.21-204.45-560.04-194.09-688.2-318.82-128.16-124.74-212.43-294.5-80.76-429.6-131.67 135.1-303.72 55.39-431.88-69.34-128.16-124.74-124.65-384.57-337.08-679.07 300.21 204.44 560.04 194.08 688.2 318.82 128.16 124.73 212.43 294.49 80.76 429.59 131.67-135.09 303.72-55.39 431.88 69.35 128.16 124.73 124.65 384.56 337.08 679.07z" class="fil1 str1"/><path d="M134530.78 4977.63s-14.93-312.52-245.49-400.9-447.2-347.72-447.2-347.72" class="fil0 str2"/><path d="M134530.45 4976.51s336.09 27.03 421.57 244.37c85.49 217.34 355.76 429.01 355.76 429.01" class="fil0 str2"/></g><g id="_2014286653168"><path d="M32238.18 18816.31C46861.44 20512.4 26578.54-89.28 26336.92 34989.08" class="fil0 str0"/><path d="M29420.47 28235.54c-914.94-59.41-1442.7 145.76-1886.12 69.09-443.42-76.67-858.71-247.27-774.38-529.11-84.34 281.84-555.87 299.1-999.29 222.44-443.42-76.67-802.49-435.18-1661.21-682.46 914.94 59.4 1442.7-145.77 1886.12-69.1 443.42 76.67 858.71 247.28 774.38 529.11 84.34-281.83 555.87-299.1 999.29-222.43 443.42 76.67 802.49 435.18 1661.21 682.46z" class="fil1 str1"/><path d="M26704.7 27842.49s-471.88-417.12-1077.78-368.73c-605.9 48.4-1423.83-147.63-1423.83-147.63" class="fil0 str2"/><path d="M26702.42 27841.2s739.66-209.99 1224.59 24.9c484.93 234.89 1347.58 326.19 1347.58 326.19" class="fil0 str2"/><path d="M30308.04 25771.2c-1036.82-73.01-1634.89 179.14-2137.37 84.92-502.48-94.23-973.1-303.91-877.53-650.29-95.58 346.38-629.92 367.61-1132.41 273.38-502.48-94.23-909.38-534.84-1882.5-838.74 1036.83 73 1634.89-179.15 2137.38-84.92 502.48 94.22 973.09 303.9 877.53 650.27 95.58-346.37 629.92-367.59 1132.4-273.37 502.48 94.23 909.39 534.84 1882.5 838.75z" class="fil1 str1"/><path d="M27230.5 25288.15s-534.74-512.65-1221.34-453.17c-686.61 59.47-1613.5-181.44-1613.5-181.44" class="fil0 str2"/><path d="M27227.92 25286.55s838.19-258.07 1387.72 30.61 1527.09 400.89 1527.09 400.89" class="fil0 str2"/><path d="M31016.48 22964c-1124.46-73.01-1773.08 179.14-2318.04 84.91-544.96-94.23-1055.36-303.9-951.71-650.28-103.66 346.38-683.17 367.6-1228.13 273.37-544.96-94.22-986.27-534.83-2041.64-838.74 1124.47 73.01 1773.09-179.15 2318.05-84.92 544.96 94.23 1055.36 303.9 951.72 650.28 103.65-346.37 683.16-367.6 1228.12-273.37 544.96 94.23 986.27 534.83 2041.63 838.75z" class="fil1 str1"/><path d="M27678.8 22480.94s-579.95-512.64-1324.59-453.17c-744.65 59.48-1749.89-181.44-1749.89-181.44" class="fil0 str2"/><path d="M27675.99 22479.35s909.05-258.08 1505.03 30.6 1656.18 400.89 1656.18 400.89" class="fil0 str2"/><path d="M31849.64 20450.32c-1124.47-73.02-1773.09 179.14-2318.05 84.91-544.96-94.23-1055.36-303.91-951.71-650.29-103.66 346.38-683.17 367.61-1228.13 273.38-544.96-94.23-986.26-534.84-2041.63-838.74 1124.47 73 1773.09-179.15 2318.05-84.92 544.96 94.22 1055.36 303.9 951.71 650.27 103.66-346.37 683.17-367.59 1228.13-273.36 544.96 94.22 986.26 534.83 2041.63 838.75z" class="fil1 str1"/><path d="M28511.95 19967.26s-579.94-512.65-1324.59-453.17c-744.65 59.47-1749.89-181.44-1749.89-181.44" class="fil0 str2"/><path d="M28509.15 19965.66s909.05-258.07 1505.03 30.61 1656.18 400.89 1656.18 400.89" class="fil0 str2"/><path d="M32980.63 18061.16c-1124.47-73.02-1773.09 179.14-2318.05 84.91-544.96-94.23-1055.36-303.9-951.71-650.29-103.66 346.39-683.17 367.61-1228.13 273.38-544.96-94.23-986.26-534.83-2041.64-838.74 1124.48 73 1773.09-179.15 2318.05-84.92 544.96 94.23 1055.36 303.9 951.72 650.28 103.66-346.38 683.17-367.6 1228.13-273.37 544.96 94.22 986.26 534.83 2041.63 838.75z" class="fil1 str1"/><path d="M29642.94 17578.1s-579.94-512.65-1324.59-453.17c-744.65 59.48-1749.89-181.44-1749.89-181.44" class="fil0 str2"/><path d="M29640.13 17576.5s909.05-258.07 1505.04 30.61c595.98 288.68 1656.18 400.89 1656.18 400.89" class="fil0 str2"/><path d="M34014.33 16712.32c-1030.59-293.82-1771.82-184.07-2241.94-382.3-470.12-198.23-849.87-499.11-578.77-807.09-271.11 307.98-831.59 212.4-1301.71 14.17-470.12-198.23-669.13-704.44-1519.01-1203.56 1030.6 293.81 1771.83 184.06 2241.95 382.29 470.12 198.23 849.87 499.11 578.78 807.09 271.1-307.98 831.58-212.4 1301.7-14.17 470.13 198.23 669.13 704.44 1519 1203.57z" class="fil1 str1"/><path d="M31088.11 15587.47s-294.64-602.25-1030.9-694.51c-736.26-92.25-1569.98-521.58-1569.98-521.58" class="fil0 str2"/><path d="M31086.24 15585.4s991.31-63.37 1412.87 329.56c421.55 392.94 1371.62 711.11 1371.62 711.11" class="fil0 str2"/><path d="M34730.96 15865.19c-539.1-412.66-1094.33-493.75-1306.75-725.12-212.42-231.38-310.58-512.84 32.23-663.12-342.81 150.28-669.49-31-881.91-262.38-212.42-231.37-82.03-613.02-392.61-1125.86 539.1 412.66 1094.33 493.75 1306.75 725.12 212.43 231.38 310.58 512.83-32.22 663.11 342.8-150.27 669.49 31.01 881.91 262.38 212.42 231.38 82.03 613.03 392.6 1125.87z" class="fil1 str1"/><path d="M33351.88 14498.27s116.26-466.15-330.25-681.92c-446.51-215.76-782.64-678.34-782.64-678.34" class="fil0 str2"/><path d="M33351.71 14496.49s699.05 164.49 777.26 516.53c78.22 352.03 550.5 764.24 550.5 764.24" class="fil0 str2"/><path d="M35047.25 16054.54c465.09-328.63 501.27-624.83 773.08-762.78 271.81-137.94 622.15-223.13 857.78-64.87-235.63-158.26-42.36-348.96 229.45-486.9s779.25-117.63 1401.41-340.76c-465.09 328.63-501.26 624.84-773.07 762.78-271.81 137.94-622.15 223.13-857.78 64.88 235.62 158.26 42.35 348.95-229.46 486.89s-779.25 117.63-1401.41 340.76z" class="fil1 str1"/><path d="M36637.8 15175.6s614.5 2.65 837.45-254.06c222.95-256.7 777.25-486.83 777.25-486.83" class="fil0 str2"/><path d="M36640.08 15175.3s-125.89 380.59-569.55 464.17c-443.67 83.59-916.38 377.72-916.38 377.72" class="fil0 str2"/><path d="M35611.49 16391.05c633.66-21.89 958.39-197.7 1273.63-175.68 315.25 22.01 627.33 109.97 617.85 307.79 9.49-197.82 327.9-241.74 643.14-219.73 315.25 22.02 621.01 241.86 1248.35 351.83-633.66 21.91-958.39 197.72-1273.64 175.7-315.24-22.02-627.32-109.97-617.85-307.79-9.48 197.82-327.89 241.74-643.14 219.72-315.24-22.02-621.01-241.86-1248.34-351.84z" class="fil1 str1"/><path d="M37529.24 16473.75s392.62 252.1 797.3 177.8c404.68-74.29 995.49 3.53 995.49 3.53" class="fil0 str2"/><path d="M37531.01 16474.48s-468.32 193.54-838.81 66.52c-370.48-127.01-973.93-130.41-973.93-130.41" class="fil0 str2"/><path d="M35742.28 17183.64c475.73 209.8 865.87 198.81 1073.29 326.88 207.42 128.08 353.94 302.51 171.22 441.58 182.72-139.07 451.04-57.35 658.46 70.73 207.42 128.08 232.12 395.22 586.06 697.73-475.74-209.8-865.88-198.81-1073.3-326.88-207.42-128.08-353.93-302.51-171.22-441.58-182.72 139.07-451.04 57.35-658.46-70.73-207.42-128.08-232.12-395.22-586.05-697.73z" class="fil1 str1"/><path d="M37049.64 17925.87s58.56 321.29 416.01 411.85c357.45 90.57 713.67 356.92 713.67 356.92" class="fil0 str2"/><path d="M37050.27 17927.03s-509.3-27.36-663.14-250.7c-153.84-223.35-585.33-440.62-585.33-440.62" class="fil0 str2"/><path d="M34743.78 17756.16c338.76 297.81 712.56 369.35 841.06 533.72s175.25 359.68-70.05 452.51c245.3-92.83 455.56 40.6 584.06 204.97 128.51 164.38 11.72 421.57 186.96 781.25-338.76-297.8-712.56-369.34-841.06-533.72-128.51-164.37-175.25-359.67 70.04-452.5-245.29 92.82-455.55-40.61-584.06-204.98-128.5-164.37-11.71-421.56-186.95-781.25z" class="fil1 str1"/><path d="M35587.83 18730.84s-113.24 315.38 176.47 475.87c289.7 160.48 486.06 486.54 486.06 486.54" class="fil0 str2"/><path d="M35587.82 18732.06s-466.1-132.74-494.1-375.73c-27.99-242.99-321.1-538.54-321.1-538.54" class="fil0 str2"/><path d="M33836.86 18069.92c86.46 279.44 313.44 406.5 319.92 548.75 6.48 142.25-60.53 289.56-281.02 304.75 220.49-15.19 300.47 122 306.95 264.25 6.48 142.25-207.53 299.68-268.06 589.24-86.45-279.43-313.43-406.49-319.92-548.74-6.48-142.25 60.53-289.56 281.02-304.75-220.49 15.19-300.47-122-306.95-264.25-6.48-142.25 207.53-299.69 268.06-589.25z" class="fil1 str1"/><path d="M33933.18 18930.24s-241.3 199.2-119.15 371.75c122.15 172.54 93.72 442.72 93.72 442.72" class="fil0 str2"/><path d="M33932.54 18931.1s-260.74-189.13-156.11-366.22c104.64-177.1 49.23-445.59 49.23-445.59" class="fil0 str2"/><path d="M31237.07 18881.04c407.9-55.57 592.84-199.59 800.6-204.14 512.5-11.21 897.03 353.63 60.84 371.92-207.75 4.55-438.32-130.38-861.44-167.78z" class="fil1 str1"/><path d="M32368.03 18204.97c63.33 207.94 279.3 311.14 274.12 415.26-5.19 104.12-84.09 208.56-305.24 209.49 221.15-.93 289.68 102.88 284.49 207.01-5.19 104.12-231.53 209.17-315.61 417.73-63.34-207.94-279.31-311.13-274.12-415.26 5.18-104.12 84.08-208.55 305.23-209.48-221.15.92-289.67-102.89-284.49-207.02 5.19-104.12 231.53-209.17 315.62-417.73z" class="fil1 str1"/><path d="M32393.62 18837.34s-256.97 134.28-149.28 265.84c107.69 131.57 57.2 327.46 57.2 327.46" class="fil0 str2"/><path d="M32392.91 18837.94s-244.56-150.06-125.69-274.49c118.86-124.44 85.59-322.96 85.59-322.96" class="fil0 str2"/></g><g id="_2014286654224"><path d="M14956.02 22946.51c11720.15 1266.37-4536.06-14115.62-4729.7 12075.2" class="fil0 str0"/><path d="M13175.29 30058.15c-901.23-54.52-1421.08 133.75-1857.85 63.4-436.77-70.36-845.84-226.91-762.77-485.53-83.08 258.62-547.54 274.47-984.31 204.11-436.77-70.35-790.47-399.33-1636.32-626.23 901.23 54.5 1421.09-133.76 1857.86-63.41s845.84 226.91 762.77 485.52c83.08-258.61 547.54-274.46 984.31-204.11 436.77 70.36 790.46 399.33 1636.31 626.25z" class="fil1 str1"/><path d="M10500.23 29697.48s-464.81-382.76-1061.63-338.36c-596.82 44.41-1402.49-135.46-1402.49-135.46" class="fil0 str2"/><path d="M10497.98 29696.29s728.58-192.69 1206.24 22.85c477.66 215.54 1327.38 299.32 1327.38 299.32" class="fil0 str2"/><path d="M13409.06 28139.3c-901.23-54.51-1421.08 133.75-1857.85 63.4s-845.84-226.91-762.77-485.53c-83.08 258.62-547.54 274.47-984.32 204.12-436.77-70.36-790.46-399.33-1636.31-626.24 901.23 54.51 1421.08-133.76 1857.85-63.41 436.78 70.36 845.85 226.91 762.78 485.52 83.08-258.61 547.54-274.46 984.31-204.1 436.77 70.35 790.46 399.33 1636.31 626.24z" class="fil1 str1"/><path d="M10733.99 27778.63s-464.8-382.76-1061.62-338.35c-596.82 44.41-1402.49-135.47-1402.49-135.47" class="fil0 str2"/><path d="M10731.75 27777.44s728.58-192.69 1206.24 22.85c477.66 215.54 1327.38 299.32 1327.38 299.32" class="fil0 str2"/><path d="M13976.86 26043.33c-901.23-54.51-1421.08 133.76-1857.85 63.4-436.77-70.35-845.84-226.9-762.77-485.52-83.08 258.62-547.54 274.46-984.32 204.11-436.77-70.35-790.46-399.33-1636.31-626.24 901.23 54.51 1421.08-133.76 1857.85-63.4 436.78 70.35 845.85 226.9 762.78 485.52 83.08-258.62 547.54-274.46 984.31-204.11 436.77 70.36 790.46 399.33 1636.31 626.24z" class="fil1 str1"/><path d="M11301.79 25682.67s-464.8-382.77-1061.62-338.36c-596.82 44.41-1402.49-135.47-1402.49-135.47" class="fil0 str2"/><path d="M11299.55 25681.47s728.58-192.69 1206.24 22.85c477.66 215.55 1327.38 299.32 1327.38 299.32" class="fil0 str2"/><path d="M14644.61 24166.52c-901.23-54.51-1421.08 133.76-1857.85 63.4-436.77-70.35-845.84-226.9-762.77-485.53-83.08 258.63-547.54 274.47-984.31 204.12-436.77-70.36-790.47-399.33-1636.32-626.24 901.23 54.51 1421.09-133.76 1857.86-63.4 436.77 70.35 845.84 226.9 762.77 485.52 83.08-258.62 547.54-274.46 984.31-204.11 436.77 70.35 790.46 399.33 1636.31 626.24z" class="fil1 str1"/><path d="M11969.55 23805.85s-464.81-382.76-1061.63-338.35c-596.82 44.41-1402.49-135.47-1402.49-135.47" class="fil0 str2"/><path d="M11967.3 23804.66s728.58-192.69 1206.24 22.85c477.66 215.54 1327.38 299.32 1327.38 299.32" class="fil0 str2"/><path d="M15551.07 22382.69c-901.23-54.52-1421.08 133.75-1857.85 63.4-436.77-70.36-845.84-226.91-762.78-485.53-83.07 258.62-547.54 274.47-984.31 204.11-436.77-70.35-790.46-399.33-1636.31-626.23 901.23 54.5 1421.08-133.76 1857.85-63.41s845.84 226.91 762.78 485.52c83.07-258.61 547.54-274.46 984.31-204.1 436.77 70.35 790.46 399.32 1636.31 626.24z" class="fil1 str1"/><path d="M12876 22022.02s-464.81-382.76-1061.62-338.35c-596.82 44.4-1402.49-135.47-1402.49-135.47" class="fil0 str2"/><path d="M12873.75 22020.83s728.58-192.69 1206.25 22.85c477.66 215.54 1327.38 299.32 1327.38 299.32" class="fil0 str2"/><path d="M16379.56 21375.59c-826-219.37-1420.07-137.43-1796.86-285.43-376.79-148.01-681.15-372.66-463.87-602.61-217.28 229.95-666.5 158.59-1043.29 10.58-376.78-148.01-536.29-525.96-1217.44-898.62 826 219.37 1420.08 137.42 1796.87 285.43 376.79 148.01 681.14 372.65 463.87 602.6 217.28-229.94 666.49-158.58 1043.28-10.58 376.79 148.01 536.29 525.97 1217.44 898.63z" class="fil1 str1"/><path d="M14034.27 20535.74s-236.15-449.67-826.24-518.55c-590.09-68.88-1258.3-389.43-1258.3-389.43" class="fil0 str2"/><path d="M14032.77 20534.19s794.51-47.31 1132.38 246.07c337.86 293.38 1099.31 530.94 1099.31 530.94" class="fil0 str2"/><path d="M16953.91 20743.1c-432.07-308.11-877.07-368.66-1047.32-541.41-170.25-172.75-248.92-382.9 25.83-495.11-274.75 112.21-536.58-23.15-706.83-195.9s-65.74-457.71-314.66-840.61c432.07 308.1 877.08 368.65 1047.33 541.4 170.25 172.76 248.91 382.9-25.83 495.11 274.75-112.2 536.58 23.15 706.83 195.9 170.24 172.75 65.74 457.71 314.65 840.62z" class="fil1 str1"/><path d="M15848.62 19722.5s93.18-348.04-264.69-509.14c-357.86-161.1-627.26-506.48-627.26-506.48" class="fil0 str2"/><path d="M15848.49 19721.17s560.26 122.82 622.95 385.66c62.69 262.84 441.21 570.61 441.21 570.61" class="fil0 str2"/><path d="M17207.41 20884.47c372.76-245.37 401.76-466.52 619.6-569.52 217.85-102.99 498.64-166.6 687.5-48.44-188.86-118.16-33.95-260.54 183.89-363.53 217.85-103 624.55-87.83 1123.19-254.43-372.75 245.37-401.75 466.53-619.59 569.52-217.85 103-498.64 166.6-687.49 48.45 188.85 118.16 33.94 260.53-183.9 363.53-217.85 102.99-624.55 87.82-1123.2 254.42z" class="fil1 str1"/><path d="M18482.2 20228.22s492.5 1.98 671.19-189.69c178.69-191.66 622.95-363.49 622.95-363.49" class="fil0 str2"/><path d="M18484.02 20227.99s-100.89 284.17-456.48 346.58c-355.59 62.4-734.45 282.01-734.45 282.01" class="fil0 str2"/><path d="M17659.64 21135.73c507.85-16.35 768.12-147.62 1020.78-131.18 252.66 16.44 502.79 82.11 495.19 229.81 7.6-147.7 262.8-180.49 515.46-164.05 252.66 16.43 497.72 180.58 1000.51 262.68-507.85 16.36-768.12 147.62-1020.78 131.18-252.66-16.43-502.79-82.1-495.19-229.8-7.6 147.7-262.8 180.49-515.46 164.05-252.66-16.44-497.72-180.58-1000.51-262.69z" class="fil1 str1"/><path d="M19196.66 21197.47s314.68 188.22 639.02 132.75 797.85 2.64 797.85 2.64" class="fil0 str2"/><path d="M19198.08 21198.01s-375.35 144.51-672.28 49.67c-296.93-94.83-780.58-97.37-780.58-97.37" class="fil0 str2"/><path d="M17764.46 21727.5c381.29 156.65 693.97 148.44 860.22 244.06 166.24 95.63 283.67 225.86 137.22 329.7 146.45-103.83 361.5-42.81 527.74 52.81 166.24 95.63 186.04 295.09 469.72 520.95-381.3-156.64-693.98-148.44-860.23-244.06-166.24-95.63-283.67-225.86-137.23-329.7-146.44 103.84-361.49 42.82-527.73-52.81-166.25-95.63-186.04-295.09-469.71-520.95z" class="fil1 str1"/><path d="M18812.27 22281.68s46.94 239.88 333.43 307.5c286.48 67.62 571.98 266.49 571.98 266.49" class="fil0 str2"/><path d="M18812.78 22282.54s-408.19-20.43-531.49-187.18c-123.3-166.76-469.13-328.98-469.13-328.98" class="fil0 str2"/><path d="M16964.19 22154.97c271.51 222.35 571.1 275.77 674.09 398.49 102.99 122.73 140.45 268.55-56.14 337.86 196.59-69.31 365.11 30.32 468.11 153.04 102.99 122.73 9.38 314.76 149.84 583.31-271.51-222.35-571.1-275.77-674.09-398.49-103-122.73-140.46-268.55 56.13-337.86-196.59 69.31-365.11-30.32-468.1-153.04-102.99-122.73-9.39-314.76-149.84-583.31z" class="fil1 str1"/><path d="M17640.68 22882.7s-90.76 235.47 141.43 355.3c232.19 119.82 389.56 363.27 389.56 363.27" class="fil0 str2"/><path d="M17640.67 22883.61s-373.57-99.11-396.01-280.53c-22.44-181.43-257.36-402.1-257.36-402.1" class="fil0 str2"/><path d="M16237.32 22389.23c69.29 208.64 251.21 303.51 256.4 409.72 5.2 106.2-48.51 216.19-225.23 227.53 176.72-11.34 240.82 91.09 246.02 197.3 5.19 106.21-166.33 223.76-214.84 439.96-69.3-208.64-251.21-303.51-256.41-409.72-5.2-106.21 48.51-216.19 225.23-227.54-176.72 11.34-240.82-91.09-246.02-197.29-5.19-106.21 166.33-223.76 214.85-439.96z" class="fil1 str1"/><path d="M16314.51 23031.58s-193.39 148.73-95.49 277.56c97.9 128.83 75.12 330.55 75.12 330.55" class="fil0 str2"/><path d="M16314 23032.22s-208.98-141.21-125.11-273.44c83.86-132.22 39.45-332.69 39.45-332.69" class="fil0 str2"/><path d="M14153.66 22994.84c326.92-41.49 475.14-149.02 641.65-152.41 410.76-8.37 718.95 264.03 48.77 277.69-166.51 3.39-351.31-97.35-690.42-125.28z" class="fil1 str1"/><path d="M15060.09 22490.06c50.76 155.26 223.85 232.31 219.7 310.05-4.16 77.75-67.39 155.72-244.64 156.41 177.25-.69 232.17 76.82 228.01 154.56-4.16 77.75-185.56 156.18-252.96 311.9-50.76-155.25-223.85-232.3-219.7-310.05 4.16-77.74 67.4-155.71 244.64-156.41-177.24.69-232.17-76.82-228.01-154.56 4.16-77.74 185.56-156.18 252.96-311.9z" class="fil1 str1"/><path d="M15080.6 22962.22s-205.96 100.25-119.65 198.48c86.31 98.24 45.85 244.49 45.85 244.49" class="fil0 str2"/><path d="M15080.03 22962.66s-196.01-112.04-100.74-204.94c95.27-92.91 68.6-241.14 68.6-241.14" class="fil0 str2"/></g></g></svg>