<svg xmlns="http://www.w3.org/2000/svg" width="290" height="559" fill="none"><path stroke="#000" stroke-linecap="round" stroke-width="3" d="M288 2c-2.236.28-6.911 6.838-8.389 8.444-2.741 2.98-4.18 7.118-7.389 9.556-6.585 5.005 4.146 6.36 7.278 7.056 7.4 1.644-2.586 9.554-4.056 11.444-2.275 2.925-.673 2.814.334 5.722 2.14 6.184-5.591 10.37-9.445 13.445-4.369 3.486-13.145 6.135-16.277 10.833-1.888 2.83.798 2.875.944 5.5.183 3.297-1.673 5.86-3.5 8.5-2.494 3.602-3.158 8.893-5 12.944-2.673 5.88 10.785 7.06 14.333 9.056 2.144 1.206 2.185 1.961.723 3.5-5.604 5.898-10.124 12.943-15 19.444-6.365 8.487-14.373 14.431-18.334 24.334-1.198 2.996-1.298 3.214 1.778 5.778 3.026 2.521 3.63 6.087 6.444 8.5 1.679 1.438 2.378 2.885 4.556 4.166 2.664 1.567 2.119 3.41.444 5.389-6.881 8.132-13.987 11.884-22.444 18.167-4.359 3.238-5.805 8.164-10.222 11.222-5.206 3.604-10.784 6.631-15.778 10.556-1.811 1.423-4 3.391-4 5.666 0 4.163 3.16 2.606 6.667 3 2.111.238 18.042 1.079 17.222 3.334-2.785 7.659-12.008 15.065-17.833 20.277-6.442 5.764-12.185 12.163-18.834 17.723-3.055 2.554-3.11 3.304-5.222 5.944-6.73 8.412-15.54 16.554-24.556 22.722-2.944 2.015 2.876 12.219 4.334 14 2.363 2.888-.845 8.179-1.778 10.278-1.764 3.969-10.128 7.326-10.944 11-.763 3.429-1.056 8.02-1.056 11.5 0 7.91-8.688 12.669-9 20.778-.157 4.072-2 7.318-2 11.722 0 5.698-8.096 11.506-12.5 14.056C103.736 390.893 94 394.323 94 402c0 5.007-4.578 11.453-7.056 15.5-3.292 5.377-6.702 12.755-6.944 19.278-.25 6.761.342 8.569-4.611 13.889-6.627 7.118-11.497 14.459-19.167 20.555-6.083 4.835-11.66 10.364-16.11 16.722-.827 1.18-2.058 5.374-.89 6.834 1.931 2.413.237 2.517-.444 5.444-.176.757-1.915 8.603-2.334 8.722-3.785 1.082-9.35 9.875-11.444 13.112C17.6 533.493 6.388 543.836 2 557"/></svg>