<svg xmlns="http://www.w3.org/2000/svg" width="265" height="571" fill="none"><path stroke="#000" stroke-linecap="round" stroke-width="3" d="M2 2c0 6.408 2.074 12.663 2.778 19 .967 8.704 2.187 18.092 4.444 26.556.691 2.592 1.156 12.68 3.778 14.222 1.354.796 4.515.222 6 .222 3.583 0 7.197-.143 10.778 0 2.185.087 1.222 5.24 1.222 6.778 0 9.523 3.756 14.242 13.111 11.61C49.408 78.9 54.746 76 60.333 76 63.481 76 62 82.454 62 84.611c0 12.058.782 24.387-1.056 36.333C59.35 131.317 56.942 142.425 58 153c.216 2.163 8.664-.116 10.222 3 1.582 3.164-.564 7.629 2.556 10 1.731 1.316 3.662 1 5.722 1 2.354 0 4.687-.889 6.889-.889 1.654 0 3.094 14.147 3.667 15.722 1.418 3.9 6.834 8.199 10.944 9.667 1.613.576 3.923 1.5 5.611 1.5 3.312 0 4.095 1.273 6.833 2.056 2.475.707 3.909 9.475 4.334 11.388 1.071 4.823 1.828 8.717 5.444 12.334 3.782 3.781.436 8.222 6.778 8.222 4.582 0 10-1.708 10 4.444 0 22.882-3 45.575-3 68.445 0 1.733-1.303 10.364.222 11.889 1.157 1.157 7.297.243 8.556.222 3.418-.056 6.795-1.381 10.222-1 3.293.366 1.852 8.821 2.222 11 .635 3.735 1.873 5.608 4.778 7.222 2.623 1.457 4.287 8.488 5 11 2.789 9.834 1.725 20.72 14.556 18.667 1-.16 7.771-3.493 8.388-1.333.741 2.592.056 6.323.056 9 0 4.437.51 15.444 6 15.444 7.009 0 6 1.112 6 8v19c0 4.781-1.275 11.787.056 16.444.872 3.053 19.71-1.444 22.944-1.444 4.567 0 2 25.701 2 29.333 0 8.298 1.965 13.82 7.556 18.611 8.245 7.068 1.867 20.159 7.444 28.834 1.231 1.914 3.544 1.655 5 4 2.472 3.983 1.001 10.727 4.778 13.778 2.213 1.787 8.222-1.562 8.222 3 0 10.041 1 20.251 1 30.388 0 6.99.143 11.271 4 17.056"/></svg>