<svg xmlns="http://www.w3.org/2000/svg" width="159" height="481" fill="none"><path stroke="#000" stroke-linecap="round" stroke-width="3" d="M157 2c0 5.324-3.245 9.296-4.778 14.333-1.942 6.382-4.376 13.195-7.222 19.223-2.457 5.203-5.677 11.633-6 17.444-.143 2.583-1.689 5.838-.944 8.444.451 1.581 13.05.556 15.444.556 4.575 0-2.723 8.653-3.056 9.167-3.928 6.06-7.62 13.441-12.444 18.833-1.528 1.708-7.896 8.129-8 10-.174 3.131 8.738 5.453 11.444 7 6.611 3.777-17 29.32-17 34.778 0 3.862 9.997-2.566 8.5 5.666-1.715 9.437-5.371 17.347-9.944 24.778-1.448 2.353-5.698 9.586-4.944 12.222.456 1.598 3.464 1.147 3.888 3.056.845 3.8-1.61 9.868-2.944 13.278-2.153 5.502-5 7.031-5 13.222 0 4.001 5-.029 5 5.5 0 7.625-5.843 15.596-10 21.722-5.976 8.806-10.778 18.319-16.444 27.222-1.433 2.251-3.909 7.393-4.5 10.056-.527 2.37-2.513 3.65-3.556 5.944-1.264 2.782 2.186.686 3.278 1.778 1.313 1.313.315 10.916 0 12.334-1.304 5.868 2.49 5.444 7.666 5.444 8.226 0 2.9 5.861.667 11.444-.878 2.197-1.464 5.041-2.055 7.112-1.005 3.515-4.537 6.389-6.612 9.444-3.414 5.027-7.448 7.939-10.888 12.944-2.977 4.33-7.087 6.001-9.334 11.056-1.255 2.825 8.734 7.489 11 9 1.184.789 5.577 2.576 2.778 4.222-6.633 3.902-12.82 9.37-18.889 14.111C58.914 385.831 50 390.389 50 395c0 1.13-.506 3.868.222 4.778 1.056 1.319 3.35 3.05 3.722 4.722 1.65 7.421-7.725 12.958-13.444 15.5-6.009 2.671-7.817 6.91-10.278 12.778-.805 1.92-5.585 9.135-2 9.222 1.108.027 8.325-.835 8.722.556 1.222 4.274-4.59 7.02-7.166 9.166C19.825 460.016 10.418 469.179 2 479"/></svg>